<?xml version="1.0" encoding="UTF-8"?>
<svg version="1.1" xmlns="http://www.w3.org/2000/svg" width="1024" height="1024">
<path d="M0 0 C337.92 0 675.84 0 1024 0 C1024 337.92 1024 675.84 1024 1024 C686.08 1024 348.16 1024 0 1024 C0 686.08 0 348.16 0 0 Z " fill="#F5F4EF" transform="translate(0,0)"/>
<path d="M0 0 C1.41274914 -0.00374256 2.82549622 -0.00834648 4.23824006 -0.01373065 C8.09745123 -0.02590132 11.95657532 -0.02570723 15.81580126 -0.02334189 C19.98706228 -0.02293222 24.15829594 -0.03398723 28.32954407 -0.04345703 C36.49340078 -0.06003549 44.6572286 -0.06556515 52.82110073 -0.06668179 C59.46070739 -0.06763377 66.10030456 -0.07175159 72.73990822 -0.07808304 C91.58561885 -0.09568697 110.43130675 -0.10492326 129.27702566 -0.10342209 C130.29197026 -0.10334218 131.30691486 -0.10326227 132.35261536 -0.10317993 C133.36880655 -0.10309817 134.38499775 -0.10301641 135.43198261 -0.10293217 C151.89472887 -0.10211955 168.35738358 -0.12125346 184.82010337 -0.14945666 C201.74469462 -0.17822115 218.66924128 -0.19199499 235.59385759 -0.19026911 C245.08737292 -0.18960644 254.58079227 -0.19504502 264.07428551 -0.21662521 C272.15811124 -0.23488399 280.24179749 -0.23914592 288.32563498 -0.22560637 C292.44502747 -0.2191003 296.56415271 -0.2188734 300.68351936 -0.23631287 C304.46448183 -0.25215415 308.24496762 -0.2490689 312.02591924 -0.2317446 C314.02056342 -0.22727079 316.01522305 -0.24224473 318.00980824 -0.25822389 C327.26931731 -0.18833063 335.07956307 1.5794284 343.87678528 4.26742554 C345.12088124 4.61169291 346.3649772 4.95596029 347.64677304 5.31066 C350.8360246 6.25535177 353.20112992 7.43537963 356.00178528 9.20492554 C357.21221497 9.96096069 357.21221497 9.96096069 358.44709778 10.73226929 C359.24889465 11.23887085 360.05069153 11.74547241 360.87678528 12.26742554 C361.6734259 12.7327771 362.47006653 13.19812866 363.29084778 13.67758179 C383.74519829 26.25299063 397.02831744 45.97812079 402.93673134 69.12786674 C404.31824117 75.5169805 404.15955726 81.91288394 404.14421082 88.42224121 C404.14795212 89.85062648 404.15255555 91.2790097 404.15794146 92.70738971 C404.17012775 96.61446618 404.16991617 100.52145674 404.16755271 104.42854786 C404.16714343 108.64958821 404.17819438 112.87060143 404.18766785 117.09162903 C404.20425537 125.35521877 404.2097764 133.61877997 404.2108926 141.88238497 C404.21184425 148.60306052 404.21596036 155.32372668 404.22229385 162.04439926 C404.23990098 181.1173681 404.24913368 200.19031447 404.24763291 219.26329149 C404.24755299 220.29074948 404.24747308 221.31820746 404.24739075 222.37680054 C404.24730899 223.40551969 404.24722722 224.43423885 404.24714299 225.49413131 C404.24633048 242.157403 404.2654606 258.82058422 404.29366748 275.48382975 C404.32243115 292.6117915 404.33620582 309.73970918 404.33447993 326.86769569 C404.33381718 336.47636161 404.33925888 346.08493271 404.36083603 355.69357681 C404.37909381 363.87624034 404.38335762 372.05876607 404.36981718 380.24144121 C404.36331035 384.41145722 404.36308697 388.58120922 404.38052368 392.75119972 C404.39636175 396.57846073 404.39328287 400.40525075 404.37595542 404.23250102 C404.37148023 406.25204632 404.38645818 408.27160688 404.40243471 410.29109395 C404.28833258 425.58793036 399.72369944 439.43488503 392.30647278 452.70101929 C390.73718757 455.51801487 389.28704475 458.36855884 387.87678528 461.26742554 C387.21678528 461.26742554 386.55678528 461.26742554 385.87678528 461.26742554 C385.64475403 461.82172241 385.41272278 462.37601929 385.17366028 462.94711304 C378.27605328 475.28801231 361.9961654 486.12329702 348.87678528 490.26742554 C348.07241028 490.53941772 347.26803528 490.81140991 346.43928528 491.09164429 C344.95739332 491.59129536 343.47216482 492.08128197 341.98225403 492.55648804 C339.82295524 493.24554485 339.82295524 493.24554485 337.62572825 494.2951529 C334.51091501 495.39683006 332.08860695 495.52428282 328.78822899 495.53472519 C326.9420635 495.54777352 326.9420635 495.54777352 325.05860174 495.56108546 C323.69586199 495.56069052 322.33312229 495.56010751 320.97038269 495.55935669 C319.52039659 495.56579204 318.07041411 495.57309306 316.62043631 495.58118558 C312.63556681 495.60088215 308.6507561 495.60816727 304.66584492 495.61341786 C300.36860319 495.62122085 296.07141048 495.64043548 291.77420044 495.65818787 C283.35635721 495.69109604 274.93851837 495.71324457 266.52063201 495.73155299 C259.68151851 495.74661902 252.84242584 495.76554393 246.00333023 495.78723907 C244.54441797 495.79186182 244.54441797 495.79186182 243.05603272 495.79657795 C241.08035056 495.80285459 239.10466842 495.80914002 237.12898631 495.81543413 C218.59635388 495.87401621 200.06370615 495.92039942 181.53103025 495.96263877 C165.61792448 495.99919356 149.70487777 496.04623612 133.79182434 496.10092163 C115.32332236 496.16438422 96.85481926 496.22134702 78.38626635 496.26791024 C76.41838048 496.27288991 74.45049463 496.27787815 72.4826088 496.28287506 C71.51430317 496.28533062 70.54599754 496.28778618 69.54834931 496.29031615 C62.71385734 496.30810011 55.87938983 496.3305638 49.04491806 496.35482025 C40.72132915 496.38423681 32.39775794 496.40654169 24.07412671 496.41962448 C19.82467537 496.42648502 15.5752969 496.43660545 11.32588005 496.45537758 C7.4400145 496.47245257 3.55424543 496.4803399 -0.33165662 496.48073009 C-1.74138505 496.4825087 -3.15111394 496.48771456 -4.56081553 496.49659464 C-6.46929053 496.50811605 -8.37783284 496.50618776 -10.28634071 496.50349045 C-11.34874588 496.50620351 -12.41115104 496.50891656 -13.5057503 496.51171184 C-16.12321472 496.26742554 -16.12321472 496.26742554 -19.12321472 494.26742554 C-20.84288815 493.85105353 -22.57434443 493.48251461 -24.31071472 493.14242554 C-44.78625613 488.20945612 -63.65290165 473.73050265 -75.12321472 456.26742554 C-80.91881283 446.40364301 -84.30492526 436.27969715 -87.12321472 425.26742554 C-87.6277288 423.64092103 -87.6277288 423.64092103 -88.14243507 421.98155785 C-89.64187259 415.92225042 -89.40566215 409.80077659 -89.39064026 403.59472656 C-89.39438073 402.20646556 -89.39898383 400.81820666 -89.4043709 399.42995107 C-89.41656826 395.62902063 -89.41634428 391.82817842 -89.41398215 388.02723289 C-89.41357313 383.92200102 -89.42462153 379.81679712 -89.43409729 375.71157837 C-89.45069248 367.67210552 -89.45620625 359.632662 -89.45732205 351.59317346 C-89.45827362 345.05270564 -89.46238943 338.51224746 -89.4687233 331.97178268 C-89.48633496 313.40614031 -89.49556278 294.84052102 -89.49406235 276.27487023 C-89.49398244 275.27451797 -89.49390252 274.27416572 -89.49382019 273.24349976 C-89.49373843 272.24191756 -89.49365667 271.24033537 -89.49357243 270.2084022 C-89.4927605 253.99651608 -89.51187497 237.78472309 -89.54009692 221.57286389 C-89.56888254 204.90483418 -89.58263396 188.23684979 -89.58090937 171.56879461 C-89.58024722 162.21991187 -89.58566186 152.87112665 -89.60726547 143.52226639 C-89.62555256 135.55778614 -89.62976354 127.59344756 -89.61624663 119.62895532 C-89.60975351 115.57198679 -89.60946558 111.51528941 -89.62695312 107.45834732 C-89.71226242 86.31864356 -89.23360024 67.34712944 -79.12321472 48.26742554 C-78.74551941 47.4952771 -78.3678241 46.72312866 -77.97868347 45.92758179 C-67.28066229 25.02296796 -49.04188457 11.53044636 -27.45133972 3.27523804 C-18.26098617 0.49224365 -9.57735903 -0.02290166 0 0 Z " fill="#383B95" transform="translate(354.1232147216797,191.73257446289063)"/>
<path d="M0 0 C7.91472805 5.1115952 11.89523507 10.69766688 14 19.9375 C14.72200811 26.59666271 14.52716902 33.32602134 14.48583984 40.01367188 C14.48798862 42.03683212 14.49187063 44.05999116 14.49734497 46.08314514 C14.50699811 51.55218907 14.49178506 57.02090405 14.47143888 62.48990822 C14.45380197 68.22760231 14.45739426 73.96528725 14.4581604 79.70300293 C14.4562903 89.33639999 14.43896608 98.96967067 14.41162109 108.60302734 C14.3801735 119.72239915 14.36962512 130.84163267 14.3710922 141.96104574 C14.37244586 153.82522243 14.35854842 165.68934619 14.34019899 177.55350685 C14.33594752 180.96071704 14.33451816 184.36791863 14.33372116 187.77513123 C14.33170371 193.13995308 14.31942441 198.50466004 14.29938889 203.86944389 C14.29357564 205.83214552 14.29108065 207.79486038 14.29224396 209.75757027 C14.30198132 236.20061398 8.41663667 257.4275037 -10.64746094 276.59716797 C-25.90973099 291.7216919 -46.0818462 298.30905139 -67.25048828 298.31298828 C-75.59688479 298.13751985 -83.08615306 296.49524107 -91 293.9375 C-91.8971875 293.66035156 -92.794375 293.38320313 -93.71875 293.09765625 C-98.99030333 291.24063178 -103.61060754 288.47452969 -108.3125 285.5 C-108.8998291 285.1285083 -109.4871582 284.7570166 -110.09228516 284.37426758 C-113.8478187 281.91154345 -116.91445223 279.1873365 -120 275.9375 C-120.70640625 275.25429688 -121.4128125 274.57109375 -122.140625 273.8671875 C-126.97239337 269.1606872 -131.26392283 264.23085429 -135.4765625 258.96875 C-139.45673243 254.18761708 -143.73756145 249.69604365 -147.9921875 245.16015625 C-150.8447641 242.11688059 -153.6092621 239.00805866 -156.3359375 235.8515625 C-159.83292933 231.829201 -163.42859365 227.89370434 -167 223.9375 C-169.24124171 221.44809312 -171.4816382 218.95796307 -173.71875 216.46484375 C-175.31328797 214.69829227 -176.91834741 212.94120644 -178.53125 211.19140625 C-179.3459375 210.30324219 -180.160625 209.41507813 -181 208.5 C-181.7425 207.69691406 -182.485 206.89382813 -183.25 206.06640625 C-185 203.9375 -185 203.9375 -186 200.9375 C-186.99 200.6075 -187.98 200.2775 -189 199.9375 C-190.41696507 198.36695794 -191.76106816 196.73003336 -193.0625 195.0625 C-196.22990428 191.06210953 -199.50554497 187.34325934 -203.0625 183.6875 C-217.6410166 167.74650521 -219.98673666 149.53056475 -219.15527344 128.5859375 C-218.17953279 111.9431159 -208.74378651 98.11955083 -197 86.9375 C-195.352346 85.58074215 -193.69164331 84.23899855 -192 82.9375 C-186.79297544 88.05023236 -181.66462149 93.16732127 -176.93359375 98.7265625 C-175.37402009 100.50983258 -173.78676278 102.2399035 -172.16015625 103.9609375 C-171.65991943 104.49348145 -171.15968262 105.02602539 -170.64428711 105.57470703 C-169.64957776 106.63063664 -168.64927226 107.68132906 -167.64282227 108.72607422 C-163.11390444 113.5559619 -163.11390444 113.5559619 -163 116.9375 C-163.94671793 118.67314953 -164.89904432 120.41123462 -165.9921875 122.05859375 C-169.22388956 128.08358867 -169.02047318 136.89460626 -167.38671875 143.3671875 C-162.82795119 154.65365167 -152.923251 163.34854808 -144.68359375 172.0078125 C-141.56124831 175.30605309 -138.55435277 178.69021895 -135.57836914 182.12060547 C-133.58128816 184.41948817 -131.54382015 186.6801464 -129.5 188.9375 C-126.23609152 192.55426345 -123.01209051 196.20139608 -119.8125 199.875 C-117.72788836 202.24714429 -115.61571356 204.59306065 -113.5 206.9375 C-110.23609152 210.55426345 -107.01209051 214.20139608 -103.8125 217.875 C-100.97101917 221.10840922 -98.08105066 224.29755907 -95.1875 227.484375 C-93.82569688 229.01153993 -92.48746827 230.56049116 -91.1875 232.140625 C-85.52125546 239.01356976 -78.20442711 245.14633144 -69.08984375 246.30859375 C-59.9983149 246.50011295 -51.91816212 245.1131332 -44.80078125 239.0703125 C-38.62731749 232.41798468 -36.54007668 226.07979957 -36.64837646 217.19732666 C-36.6466686 216.34156091 -36.64496073 215.48579517 -36.64320111 214.60409713 C-36.64094807 211.74920862 -36.65992278 208.89486062 -36.67871094 206.04003906 C-36.68115551 203.98791622 -36.68218238 201.93579127 -36.68190002 199.88366699 C-36.68372554 195.46987456 -36.69438963 191.05622265 -36.71157074 186.64246368 C-36.73750888 179.65741204 -36.73641555 172.67252665 -36.73028564 165.68743896 C-36.71669823 145.82638233 -36.73433715 125.96547522 -36.79052734 106.10449219 C-36.82133835 95.13114609 -36.8270565 84.1580731 -36.80564141 73.18470168 C-36.79354396 66.24702032 -36.8123253 59.31033551 -36.85412645 52.37278032 C-36.8727975 48.04768114 -36.8621142 43.72301712 -36.84327507 39.39793396 C-36.84038289 37.39973234 -36.84937123 35.40147083 -36.87143898 33.40338898 C-36.98658287 22.33840096 -37.02490693 13.50259359 -29 4.9375 C-21.52450049 -1.82867739 -9.56974675 -3.57768055 0 0 Z " fill="#E7E7E8" transform="translate(670,311.0625)"/>
<path d="M0 0 C1.10915771 0.45922852 1.10915771 0.45922852 2.24072266 0.92773438 C22.24503266 9.35144623 35.27876851 22.76823986 49.23046875 38.98046875 C51.60884497 41.6948628 54.05512354 44.34569125 56.5 47 C60.1417571 50.95581801 63.7349969 54.94561843 67.2578125 59.0078125 C69.31500399 61.36020635 71.40596915 63.68034966 73.5 66 C76.17048344 68.95869751 78.82298058 71.92926472 81.4375 74.9375 C84.24822525 78.16559512 87.115799 81.33738443 90 84.5 C93.45396411 88.28737844 96.86421488 92.10447716 100.22265625 95.9765625 C102.2852491 98.32474513 104.39356478 100.62859124 106.5 102.9375 C121.68540799 119.87606206 129.20423164 137.31856012 128.37890625 160.16796875 C127.22363989 178.54720622 118.8208103 193.31662565 106 206 C105.23042969 206.77085937 104.46085938 207.54171875 103.66796875 208.3359375 C103.11753906 208.88507813 102.56710937 209.43421875 102 210 C94.92654511 206.89458078 89.92185656 200.05734281 85.01171875 194.27734375 C83.40872711 192.46269496 81.77633439 190.73074001 80.08203125 189.00390625 C79.57389893 188.47700195 79.0657666 187.95009766 78.54223633 187.40722656 C77.52924987 186.35976296 76.50456792 185.3234611 75.4675293 184.29980469 C72 180.67742656 72 180.67742656 72 177.57421875 C72.76713526 175.59944479 73.63120382 173.66210489 74.53515625 171.74609375 C76.40515463 167.53318454 76.47979683 163.61902254 76.4375 159.0625 C76.45748047 158.30259766 76.47746094 157.54269531 76.49804688 156.75976562 C76.49105942 148.577454 73.27288258 142.87308435 67.6875 137 C66.49640625 135.72576172 66.49640625 135.72576172 65.28125 134.42578125 C64.5284375 133.62527344 63.775625 132.82476562 63 132 C61.88907993 130.73506601 60.78444079 129.46457568 59.6875 128.1875 C56.52921083 124.55804415 53.26999179 121.02837393 50 117.5 C48.46474302 115.83825675 46.93026828 114.17579826 45.39648438 112.51269531 C44.15728051 111.17036889 42.91481303 109.83105699 41.671875 108.4921875 C41.03765625 107.79351562 40.4034375 107.09484375 39.75 106.375 C38.93789063 105.48941406 38.93789063 105.48941406 38.109375 104.5859375 C37 103 37 103 37 100 C36.40614502 99.73590332 35.81229004 99.47180664 35.20043945 99.19970703 C32.91362072 97.95290494 31.54748259 96.71411512 29.79296875 94.8046875 C29.20990967 94.17522217 28.62685059 93.54575684 28.02612305 92.8972168 C27.11600464 91.89621948 27.11600464 91.89621948 26.1875 90.875 C25.24547729 89.85176636 25.24547729 89.85176636 24.28442383 88.80786133 C20.68055405 84.88169044 17.11457808 80.92524055 13.63671875 76.88671875 C10.87013167 73.69755035 8.0254754 70.57873304 5.1875 67.453125 C3.82569688 65.92596007 2.48746827 64.37700884 1.1875 62.796875 C-5.53225907 54.64605612 -13.78594089 49.08185169 -24.40234375 47.68359375 C-32.60780302 47.28174661 -40.4851027 49.66988421 -46.9375 54.8125 C-52.16870048 59.76771389 -54.87815892 65.40413297 -55.12190533 72.59776306 C-55.125647 74.07550654 -55.12388182 75.55326998 -55.11784363 77.03100586 C-55.11854821 77.84675079 -55.11925279 78.66249573 -55.11997873 79.50296021 C-55.12128858 82.24027582 -55.11561072 84.97753401 -55.11010742 87.71484375 C-55.1098653 89.67623393 -55.11014248 91.63762423 -55.11090088 93.59901428 C-55.11200769 97.826186 -55.11057271 102.05334687 -55.10753441 106.28051758 C-55.10390259 112.97153993 -55.11304023 119.6625057 -55.12532043 126.35351562 C-55.12835333 128.04789229 -55.12835333 128.04789229 -55.13144749 129.77649879 C-55.13561628 132.08662166 -55.13981904 134.39674447 -55.14405501 136.70686722 C-55.17218814 152.28394076 -55.19235009 167.86089207 -55.17504883 183.43798828 C-55.16347453 193.94475708 -55.17313188 204.45127205 -55.20710641 214.95799541 C-55.22423089 220.51518896 -55.23059622 226.07192458 -55.210989 231.62911987 C-55.1926915 236.86276115 -55.20248056 242.09561555 -55.23324585 247.32919121 C-55.23958492 249.24309127 -55.23582338 251.15705752 -55.22084999 253.0709095 C-55.14299434 263.82629023 -55.33281426 272.94722854 -62 282 C-67.27644574 287.10575383 -72.83934914 290.28005506 -80.3125 290.3125 C-88.15005087 290.13365656 -93.6805767 287.99424107 -99.4609375 282.67578125 C-105.4843144 276.1173328 -106.1499868 269.23778354 -106.14044189 260.65892029 C-106.14341302 259.82190317 -106.14638414 258.98488605 -106.1494453 258.12250477 C-106.1581132 255.31920852 -106.15963895 252.51595507 -106.16113281 249.71264648 C-106.16576243 247.70184742 -106.17078729 245.69104924 -106.17617798 243.68025208 C-106.18929236 238.21710707 -106.19574537 232.75397435 -106.20018864 227.29081607 C-106.20312164 223.87500325 -106.20722694 220.45919378 -106.21169281 217.04338264 C-106.22536682 206.34863756 -106.23503327 195.65390013 -106.2388947 184.95914692 C-106.24337171 172.6281282 -106.2609035 160.29722054 -106.2898953 147.96623558 C-106.31154335 138.4263211 -106.32160069 128.88643779 -106.32293582 119.34649903 C-106.32398184 113.65305406 -106.32984628 107.95971351 -106.34775543 102.26629448 C-106.36428952 96.9056486 -106.36636573 91.545185 -106.35761642 86.18452263 C-106.35684884 84.22384654 -106.36115182 82.26316044 -106.37107468 80.30250931 C-106.41955302 70.12134821 -106.26762703 60.77268237 -103 51 C-102.64679688 49.90945313 -102.29359375 48.81890625 -101.9296875 47.6953125 C-93.25730281 26.56038981 -78.24383379 10.30328602 -57.11645508 1.34521484 C-39.47980889 -5.81123215 -17.81314234 -7.48755814 0 0 Z " fill="#E6E7E7" transform="translate(446,274)"/>
<path d="M0 0 C21 0 21 0 25.796875 3.33203125 C27.36547852 5.48461914 27.36547852 5.48461914 28.75 7.8125 C29.57359009 8.98510376 29.57359009 8.98510376 30.41381836 10.18139648 C31.5006329 11.72971968 32.56240483 13.29600164 33.59521484 14.88085938 C35.4017215 17.60600324 37.44455621 20.07439306 39.5625 22.5625 C41.04229165 24.37448978 42.5213973 26.1870399 44 28 C44.48291504 28.59103516 44.96583008 29.18207031 45.46337891 29.79101562 C47.10197468 31.79704797 48.73863949 33.80464403 50.375 35.8125 C51.11472046 36.71754272 51.11472046 36.71754272 51.86938477 37.64086914 C57.33747621 44.35920919 62.64518628 51.18478254 68 58 C68.33 38.86 68.66 19.72 69 0 C76.92 0 84.84 0 93 0 C93 32.67 93 65.34 93 99 C85.74 99 78.48 99 71 99 C66.68241529 94.68241529 64.81383093 92.09685806 62 87 C60.26953172 84.74016483 58.39169039 82.62542267 56.5 80.5 C52.22315247 75.54615665 48.28885937 70.41348758 44.4140625 65.13671875 C41.06082263 60.7796773 37.46127142 56.65117403 33.80883789 52.54321289 C30 48.20876157 30 48.20876157 30 46 C29.01 46 28.02 46 27 46 C25.3125 44.5 25.3125 44.5 24 43 C24.16455185 43.55218201 24.3291037 44.10436401 24.49864197 44.67327881 C25.05985768 47.27778979 25.07991451 49.56391358 25.02172852 52.22753906 C24.99158409 53.78870453 24.99158409 53.78870453 24.96083069 55.38140869 C24.93379562 56.49820007 24.90676056 57.61499146 24.87890625 58.765625 C24.85529526 59.91415955 24.83168427 61.06269409 24.80735779 62.24603271 C24.73078927 65.91414966 24.64673513 69.58205188 24.5625 73.25 C24.50927253 75.73696866 24.45653217 78.2239478 24.40429688 80.7109375 C24.27609882 86.80746717 24.13778261 92.90364923 24 99 C16.08 99 8.16 99 0 99 C0 66.33 0 33.66 0 0 Z " fill="#3A4097" transform="translate(297,746)"/>
<path d="M0 0 C8.02866746 6.58383569 11.43944054 13.44332161 14.6875 23.1875 C14.6875 28.4675 14.6875 33.7475 14.6875 39.1875 C-4.1225 39.1875 -22.9325 39.1875 -42.3125 39.1875 C-38.35915878 47.09418243 -36.3957893 50.45446809 -28.3125 53.1875 C-19.99244388 54.12527828 -12.67962661 53.2820085 -5.3125 49.1875 C-4.6525 48.5275 -3.9925 47.8675 -3.3125 47.1875 C0.65899936 47.41711559 2.77444084 49.80966616 5.5 52.5 C6.31082031 53.27988281 7.12164062 54.05976562 7.95703125 54.86328125 C9.6875 57.1875 9.6875 57.1875 9.69921875 59.2578125 C6.88990433 64.61611877 0.61513074 68.12575766 -4.9375 70.0625 C-18.71331923 73.92067618 -33.42541133 73.45794538 -46.20703125 66.64453125 C-51.79728138 62.98195358 -55.76169465 58.81981194 -59.3125 53.1875 C-59.71339844 52.57648437 -60.11429687 51.96546875 -60.52734375 51.3359375 C-65.78473525 42.84178895 -65.56005005 30.88912929 -64.3125 21.1875 C-61.93757534 11.97856514 -56.19650138 4.3684152 -48.3125 -0.8125 C-33.36984354 -9.18880602 -14.34710818 -10.09711576 0 0 Z " fill="#3A3F96" transform="translate(468.3125,773.8125)"/>
<path d="M0 0 C7.59 0 15.18 0 23 0 C23.03738281 3.39539063 23.07476563 6.79078125 23.11328125 10.2890625 C23.15952149 13.58551393 23.21074619 16.88185295 23.26245117 20.17822266 C23.29566006 22.46526226 23.32370451 24.75238303 23.34643555 27.03955078 C23.3800551 30.33140578 23.43237624 33.62251972 23.48828125 36.9140625 C23.49467117 37.93303619 23.5010611 38.95200989 23.50764465 40.00186157 C23.63739892 46.29839274 24.35538859 50.80442788 28.5 55.8125 C31.98415164 58.57078671 36.12228328 58.40013487 40.36328125 58.33203125 C44.8440926 57.76778093 47.74501417 56.06548024 51 53 C54.89065732 46.8583757 55.5995907 40.83520541 55.609375 33.71484375 C55.62591125 32.77314835 55.64244751 31.83145294 55.65948486 30.86122131 C55.70763419 27.88657902 55.72926194 24.91244666 55.75 21.9375 C55.77818736 19.90687584 55.80811862 17.87627509 55.83984375 15.84570312 C55.91663191 10.8969083 55.95745872 5.9496784 56 1 C63.26 1 70.52 1 78 1 C78 26.08 78 51.16 78 77 C71.07 77 64.14 77 57 77 C56.505 73.04 56.505 73.04 56 69 C55.52691406 69.39832031 55.05382812 69.79664063 54.56640625 70.20703125 C45.10347149 77.78844682 35.84713854 79.11949034 23.96630859 78.25439453 C17.09361719 77.36522835 11.18297047 73.23904431 6.64604187 68.14387512 C0.40801847 60.01920745 -0.71288013 51.87088495 -0.48828125 41.89453125 C-0.48120651 40.6893132 -0.47413177 39.48409515 -0.46684265 38.24235535 C-0.43908396 34.4317445 -0.37637627 30.62265901 -0.3125 26.8125 C-0.28739338 24.212912 -0.26458439 21.61330073 -0.24414062 19.01367188 C-0.18931739 12.67520274 -0.10317076 6.33785905 0 0 Z " fill="#383C91" transform="translate(575,768)"/>
<path d="M0 0 C21.36371555 -2.3805283 21.36371555 -2.3805283 27.10107422 1.37548828 C30.32215372 4.80882057 32.30812199 8.79434194 34.13525391 13.09863281 C35.44202834 15.97191324 37.18309601 18.42504997 39 21 C41.82984213 18.57999707 43.52822966 16.15913997 45.20703125 12.890625 C47.86762116 7.99879136 50.42631366 3.33064944 55 0 C62.44888974 -2.08921216 70.43502907 -1.0624419 78 0 C76.74478703 3.41684456 75.3210999 6.21081831 73.171875 9.14453125 C72.34236328 10.28438477 72.34236328 10.28438477 71.49609375 11.44726562 C70.91988281 12.22779297 70.34367188 13.00832031 69.75 13.8125 C69.18925781 14.58142578 68.62851562 15.35035156 68.05078125 16.14257812 C59.26144319 28.16955919 59.26144319 28.16955919 55.33007812 33.09008789 C53.79527154 34.91784302 53.79527154 34.91784302 53.953125 37.234375 C55.53230292 41.40623309 58.09173369 44.69392383 60.75 48.25 C61.32258545 49.03052734 61.8951709 49.81105469 62.48510742 50.61523438 C67.23029218 57.0533273 72.09305356 63.40501005 77.03613281 69.69238281 C77.81682129 70.69543457 77.81682129 70.69543457 78.61328125 71.71875 C79.07516846 72.30591797 79.53705566 72.89308594 80.01293945 73.49804688 C81 75 81 75 81 77 C72.42 77 63.84 77 55 77 C53.02 73.535 53.02 73.535 51 70 C49.1916495 67.16200568 47.28375542 64.39626789 45.375 61.625 C44.88515625 60.90183594 44.3953125 60.17867187 43.890625 59.43359375 C43.41882813 58.74652344 42.94703125 58.05945313 42.4609375 57.3515625 C42.03603027 56.73104004 41.61112305 56.11051758 41.17333984 55.47119141 C40.04814707 53.84889892 40.04814707 53.84889892 38 53 C37.76152344 53.69222656 37.52304687 54.38445313 37.27734375 55.09765625 C35.76892098 58.52505112 33.74657067 61.42073033 31.5625 64.4375 C28.61652944 68.51764519 26.27593514 72.44812972 24 77 C15.42 77 6.84 77 -2 77 C-0.1183709 73.23674179 2.05033143 69.95604316 4.5 66.5625 C5.15778442 65.64585571 5.15778442 65.64585571 5.82885742 64.71069336 C8.91513879 60.43564656 12.0865988 56.23288052 15.3125 52.0625 C15.72927002 51.52189941 16.14604004 50.98129883 16.57543945 50.42431641 C18.29468838 48.19631367 20.02010386 45.97475947 21.7734375 43.7734375 C24.32037092 40.74953034 24.32037092 40.74953034 24.75927734 37.02441406 C23.96328056 34.90209723 23.05604014 33.45473969 21.6640625 31.671875 C21.18171143 31.04434326 20.69936035 30.41681152 20.20239258 29.77026367 C19.68185303 29.10357666 19.16131348 28.43688965 18.625 27.75 C14.21435886 21.98748432 9.92940609 16.1639648 5.8125 10.1875 C5.34344238 9.51235352 4.87438477 8.83720703 4.39111328 8.14160156 C2.54652334 5.44867913 1.03767323 3.11301968 0 0 Z " fill="#383C93" transform="translate(488,768)"/>
<path d="M0 0 C-1.09698167 5.69139902 -2.54053077 10.74567937 -5 16 C-6.77131561 15.69024532 -8.54203778 15.37709575 -10.3125 15.0625 C-11.79169922 14.80146484 -11.79169922 14.80146484 -13.30078125 14.53515625 C-16 14 -16 14 -19 13 C-21.61864161 12.8515056 -24.1932477 12.7689973 -26.8125 12.75 C-27.86147461 12.7190625 -27.86147461 12.7190625 -28.93164062 12.6875 C-33.72306977 12.65164272 -36.89852236 13.55327864 -41 16 C-41.16687448 18.41645782 -41.16687448 18.41645782 -41 21 C-36.92782005 25.07217995 -30.98569426 25.41966536 -25.51147461 26.34350586 C-6.2838857 29.60901716 -6.2838857 29.60901716 0.5 36.5625 C4.00105929 42.25172134 4.64143179 46.32704026 4 53 C2.22500596 59.055862 -1.40497513 63.7371456 -6 68 C-6.66 68 -7.32 68 -8 68 C-8 68.66 -8 69.32 -8 70 C-9.35129647 70.48720213 -10.70624316 70.96428184 -12.0625 71.4375 C-12.81660156 71.70433594 -13.57070313 71.97117187 -14.34765625 72.24609375 C-27.98452397 76.12225792 -46.22253878 75.5271711 -59.01464844 68.96679688 C-60.69540302 68.01046185 -62.35046331 67.0092281 -64 66 C-63.39644592 62.14974121 -62.23227397 59.13898841 -60.4375 55.6875 C-59.98246094 54.80449219 -59.52742187 53.92148437 -59.05859375 53.01171875 C-58.70925781 52.34785156 -58.35992188 51.68398438 -58 51 C-57.43152344 51.19335938 -56.86304688 51.38671875 -56.27734375 51.5859375 C-55.50519531 51.84632813 -54.73304688 52.10671875 -53.9375 52.375 C-53.18339844 52.63023437 -52.42929687 52.88546875 -51.65234375 53.1484375 C-50.77707031 53.42945313 -49.90179687 53.71046875 -49 54 C-47.39705078 54.53753906 -47.39705078 54.53753906 -45.76171875 55.0859375 C-41.36214284 56.15499333 -37.3792287 56.2948182 -32.875 56.25 C-32.08996094 56.25773438 -31.30492187 56.26546875 -30.49609375 56.2734375 C-26.30431344 56.25929996 -22.70875826 56.19186887 -19 54 C-18.10169161 50.94727535 -18.10169161 50.94727535 -18 48 C-22.90167651 45.18679615 -27.19505961 44.30018687 -32.6875 43.5625 C-42.84478364 42.01147898 -53.03812621 40.25110967 -60 32 C-63.46477155 26.07635832 -63.9296544 20.51426776 -62.56640625 13.89453125 C-60.52418981 7.3366064 -56.29895519 2.96414717 -50.4609375 -0.51171875 C-34.44797557 -8.7543791 -16.45622341 -5.4854078 0 0 Z " fill="#383C90" transform="translate(730,772)"/>
<path d="M0 0 C3.78300979 2.20675571 6.13335832 5.969509 7.6875 9.984375 C7.6875 11.304375 7.6875 12.624375 7.6875 13.984375 C-4.1925 13.984375 -16.0725 13.984375 -28.3125 13.984375 C-27.18085222 7.19448834 -27.18085222 7.19448834 -24 3.734375 C-23.40574219 3.06921875 -22.81148438 2.4040625 -22.19921875 1.71875 C-16.02412994 -3.95772916 -7.34274996 -3.13843345 0 0 Z " fill="#C7C7C9" transform="translate(454.3125,786.015625)"/>
<path d="M0 0 C0.99 0.495 0.99 0.495 2 1 C-2.67190825 7.22921101 -7.38504007 10.51107086 -14.6875 13.125 C-15.76402832 13.51292725 -15.76402832 13.51292725 -16.86230469 13.90869141 C-37.44725179 21.1649549 -59.30841069 19.36410216 -79 10 C-80.69584687 9.05032575 -82.38278492 8.07814339 -84 7 C-83.67 5.68 -83.34 4.36 -83 3 C-83.66 2.67 -84.32 2.34 -85 2 C-83.68 2 -82.36 2 -81 2 C-80 3 -79 4 -78 5 C-75.70884436 6.1404407 -73.38321975 7.05570538 -71 8 C-71 8.66 -71 9.32 -71 10 C-69.3603125 10.2165625 -69.3603125 10.2165625 -67.6875 10.4375 C-64 11 -64 11 -61 12 C-61 12.66 -61 13.32 -61 14 C-59.741875 13.835 -58.48375 13.67 -57.1875 13.5 C-53.77659633 13.11455732 -50.4923426 12.98285969 -47.0625 13.0625 C-37.04008742 13.17606841 -26.85728706 11.73952125 -17 10 C-16.67 9.01 -16.34 8.02 -16 7 C-14.63875 6.87625 -14.63875 6.87625 -13.25 6.75 C-9.52651612 5.89073449 -8.55009399 4.72010026 -6 2 C-3.875 1.3125 -3.875 1.3125 -2 1 C-1.34 0.67 -0.68 0.34 0 0 Z " fill="#D0D2D5" transform="translate(648,591)"/>
<path d="M0 0 C0.66 0 1.32 0 2 0 C2.17759655 14.98622835 2.34323628 29.9725537 2.49477577 44.9590683 C2.56542013 51.91809997 2.63992617 58.87704968 2.72363281 65.8359375 C2.80442171 72.5531732 2.87430372 79.27044195 2.93757248 85.98786926 C2.96347118 88.54909669 2.99300827 91.11029003 3.02626419 93.6714325 C3.07226271 97.26205196 3.10525674 100.85257546 3.13525391 104.44335938 C3.1517952 105.49928284 3.16833649 106.5552063 3.18537903 107.64312744 C3.21880553 113.46736121 2.68861574 118.41802084 1 124 C0.67 124 0.34 124 0 124 C0 83.08 0 42.16 0 0 Z " fill="#323682" transform="translate(684,418)"/>
<path d="M0 0 C6.93 0 13.86 0 21 0 C21 0.33 21 0.66 21 1 C14.4 1 7.8 1 1 1 C1 33.01 1 65.02 1 98 C8.26 98 15.52 98 23 98 C23 78.53 23 59.06 23 39 C23.66 39 24.32 39 25 39 C26.32 41.31 27.64 43.62 29 46 C27 46 27 46 25.375 44.5 C24.92125 44.005 24.4675 43.51 24 43 C24.16455185 43.55218201 24.3291037 44.10436401 24.49864197 44.67327881 C25.05985768 47.27778979 25.07991451 49.56391358 25.02172852 52.22753906 C24.99158409 53.78870453 24.99158409 53.78870453 24.96083069 55.38140869 C24.93379562 56.49820007 24.90676056 57.61499146 24.87890625 58.765625 C24.85529526 59.91415955 24.83168427 61.06269409 24.80735779 62.24603271 C24.73078927 65.91414966 24.64673513 69.58205188 24.5625 73.25 C24.50927253 75.73696866 24.45653217 78.2239478 24.40429688 80.7109375 C24.27609882 86.80746717 24.13778261 92.90364923 24 99 C16.08 99 8.16 99 0 99 C0 66.33 0 33.66 0 0 Z " fill="#898DB9" transform="translate(297,746)"/>
<path d="M0 0 C1.81637485 1.61234371 2.05412604 2.90685329 2.42578125 5.265625 C1.74773437 5.0490625 1.0696875 4.8325 0.37109375 4.609375 C-10.66602325 1.30741202 -19.03662921 1.23778121 -29.57421875 6.265625 C-32.07909682 7.80073257 -34.27375413 9.42525331 -36.57421875 11.265625 C-36.57421875 9.078125 -36.57421875 9.078125 -35.57421875 6.265625 C-33.08864172 4.27367892 -30.36035565 2.79588958 -27.57421875 1.265625 C-26.21296875 0.399375 -26.21296875 0.399375 -24.82421875 -0.484375 C-17.31598049 -4.65561848 -7.41980618 -3.87120322 0 0 Z " fill="#D9DBDC" transform="translate(432.57421875,319.734375)"/>
<path d="M0 0 C1.32 0 2.64 0 4 0 C5 1 6 2 7 3 C9.29115564 4.1404407 11.61678025 5.05570538 14 6 C14 6.66 14 7.32 14 8 C15.6396875 8.2165625 15.6396875 8.2165625 17.3125 8.4375 C21 9 21 9 24 10 C24 10.66 24 11.32 24 12 C24.7425 11.79375 25.485 11.5875 26.25 11.375 C29.32330841 10.95591249 30.42786866 11.38050989 33 13 C33 13.66 33 14.32 33 15 C39.27 15 45.54 15 52 15 C52 15.33 52 15.66 52 16 C34.13536478 16.65894146 16.37048217 15.24698811 1 5 C1.33 3.68 1.66 2.36 2 1 C1.34 0.67 0.68 0.34 0 0 Z " fill="#ADB1BB" transform="translate(563,593)"/>
<path d="M0 0 C0.33 0 0.66 0 1 0 C2.2144851 13.05571483 -5.01643647 24.57858184 -12 35 C-12.66 35.66 -13.32 36.32 -14 37 C-14.99 36.67 -15.98 36.34 -17 36 C-16.34 34.68 -15.68 33.36 -15 32 C-14.34 32 -13.68 32 -13 32 C-12.88527344 31.43023438 -12.77054688 30.86046875 -12.65234375 30.2734375 C-11.93461311 27.77212474 -10.88527687 25.86233774 -9.5625 23.625 C-7.57840514 20.14713257 -6.13862415 16.85380481 -5 13 C-4.33333333 11.33333333 -3.66666667 9.66666667 -3 8 C-2.649375 6.948125 -2.29875 5.89625 -1.9375 4.8125 C-1 2 -1 2 0 0 Z " fill="#33337D" transform="translate(755,615)"/>
<path d="M0 0 C2.35861489 1.17930745 4.71349258 2.36402683 7.0625 3.5625 C9.95631106 5.05930113 9.95631106 5.05930113 13 6 C13.99 6.33 14.98 6.66 16 7 C16 6.34 16 5.68 16 5 C16.969375 5.20625 17.93875 5.4125 18.9375 5.625 C22.915929 6.21770473 26.22469835 5.47516446 30.08203125 4.47265625 C32 4 32 4 34 4 C34 3.34 34 2.68 34 2 C37.0625 1.125 37.0625 1.125 41 1 C43.67416275 2.67780481 45.82670635 4.72101425 48 7 C47.67 7.99 47.34 8.98 47 10 C46.31164062 9.22462891 46.31164062 9.22462891 45.609375 8.43359375 C44.99578125 7.77488281 44.3821875 7.11617187 43.75 6.4375 C43.14671875 5.77621094 42.5434375 5.11492188 41.921875 4.43359375 C40.12823202 2.76685341 40.12823202 2.76685341 37.984375 3.16015625 C36.03917617 3.98341953 34.29585805 4.8898332 32.5 6 C26.19959313 9.89479698 19.21913656 9.62100099 12 9 C6.55714885 7.42781066 3.16267468 4.74401202 0 0 Z " fill="#D6D6D7" transform="translate(428,819)"/>
<path d="M0 0 C0.66 0.33 1.32 0.66 2 1 C-2.12148633 8.596465 -7.02767122 14.77423291 -13 21 C-13.53367187 21.57363281 -14.06734375 22.14726562 -14.6171875 22.73828125 C-15.69729762 23.87271644 -16.84096446 24.94633132 -18 26 C-18.66 26 -19.32 26 -20 26 C-20 25.34 -20 24.68 -20 24 C-19.2471875 23.42507813 -18.494375 22.85015625 -17.71875 22.2578125 C-13.84032617 19.03693754 -12.1363763 15.10272597 -9.84375 10.6796875 C-7.74556128 7.63020135 -6.41999577 7.14943567 -3 6 C-1.70339566 3.50965614 -1.70339566 3.50965614 -1 1 C-0.67 0.67 -0.34 0.34 0 0 Z " fill="#D5D6D9" transform="translate(566,458)"/>
<path d="M0 0 C0.66 0.33 1.32 0.66 2 1 C-3.62006402 8.4934187 -9.27541341 11.12745661 -18 14 C-17.67 13.01 -17.34 12.02 -17 11 C-16.34 11 -15.68 11 -15 11 C-15 10.34 -15 9.68 -15 9 C-10.60757749 4.90420862 -5.66609125 1.92647102 0 0 Z " fill="#CED0D2" transform="translate(648,591)"/>
<path d="M0 0 C0.66 0 1.32 0 2 0 C3.32 2.31 4.64 4.62 6 7 C4 7 4 7 2.375 5.5 C1.92125 5.005 1.4675 4.51 1 4 C1.16455185 4.55218201 1.3291037 5.10436401 1.49864197 5.67327881 C2.05985768 8.27778979 2.07991451 10.56391358 2.02172852 13.22753906 C2.00163223 14.26831604 1.98153595 15.30909302 1.96083069 16.38140869 C1.93379562 17.49820007 1.90676056 18.61499146 1.87890625 19.765625 C1.85529526 20.91415955 1.83168427 22.06269409 1.80735779 23.24603271 C1.73078927 26.91414966 1.64673513 30.58205188 1.5625 34.25 C1.50927253 36.73696866 1.45653217 39.2239478 1.40429688 41.7109375 C1.27518326 47.8074245 1.13992344 53.90375204 1 60 C0.67 60 0.34 60 0 60 C0 40.2 0 20.4 0 0 Z " fill="#9898B2" transform="translate(320,785)"/>
<path d="M0 0 C1.32 0 2.64 0 4 0 C5 1 6 2 7 3 C8.134375 3.474375 9.26875 3.94875 10.4375 4.4375 C13.85375867 5.93585907 15.68327306 7.1272586 18 10 C18 10.66 18 11.32 18 12 C11.77274933 10.34608232 6.46037442 8.44240996 1 5 C1.33 3.68 1.66 2.36 2 1 C1.34 0.67 0.68 0.34 0 0 Z " fill="#B7B9BF" transform="translate(563,593)"/>
<path d="M0 0 C0.33 0.66 0.66 1.32 1 2 C3.60444348 2.05394705 6.20776998 2.09364469 8.8125 2.125 C9.91948242 2.15013672 9.91948242 2.15013672 11.04882812 2.17578125 C14.91246426 2.21074628 16.70903668 2.19397555 20 0 C21.5 1.375 21.5 1.375 23 3 C23 3.66 23 4.32 23 5 C14.42 5 5.84 5 -3 5 C-3 4.01 -3 3.02 -3 2 C-2.01 1.34 -1.02 0.68 0 0 Z " fill="#474580" transform="translate(546,840)"/>
<path d="M0 0 C0.33 0.66 0.66 1.32 1 2 C4.29164829 2.02895225 7.58326399 2.0467823 10.875 2.0625 C11.81214844 2.07087891 12.74929688 2.07925781 13.71484375 2.08789062 C14.61074219 2.09111328 15.50664062 2.09433594 16.4296875 2.09765625 C17.25710449 2.10289307 18.08452148 2.10812988 18.93701172 2.11352539 C21.06411757 2.13352138 21.06411757 2.13352138 23 1 C23 2.32 23 3.64 23 5 C14.42 5 5.84 5 -3 5 C-1 1 -1 1 0 0 Z " fill="#504E86" transform="translate(489,840)"/>
<path d="M0 0 C0.66 0.66 1.32 1.32 2 2 C-1.36042176 7.77992542 -5.33437708 11.9861043 -11.9375 13.8125 C-12.618125 13.874375 -13.29875 13.93625 -14 14 C-12.72320197 10.16960592 -11.40564374 10.01242585 -8 8 C-7.113125 7.113125 -6.22625 6.22625 -5.3125 5.3125 C-4.549375 4.549375 -3.78625 3.78625 -3 3 C-2.34 3 -1.68 3 -1 3 C-0.67 2.01 -0.34 1.02 0 0 Z " fill="#C9C9CF" transform="translate(385,549)"/>
<path d="M0 0 C0 4.62 0 9.24 0 14 C-2.64752004 11.42215154 -4.94432065 9.08351902 -7 6 C-6.02388578 4.99702025 -5.04402202 3.99768827 -4.0625 3 C-3.51722656 2.443125 -2.97195313 1.88625 -2.41015625 1.3125 C-1 0 -1 0 0 0 Z " fill="#D6D5D6" transform="translate(366,791)"/>
<path d="M0 0 C2.33837891 -0.34057617 2.33837891 -0.34057617 5.2265625 -0.29296875 C6.7734375 -0.2784668 6.7734375 -0.2784668 8.3515625 -0.26367188 C9.43179688 -0.23853516 10.51203125 -0.21339844 11.625 -0.1875 C12.71296875 -0.17396484 13.8009375 -0.16042969 14.921875 -0.14648438 C17.61507409 -0.11104754 20.30729374 -0.06164331 23 0 C21.56171454 3.90669429 20.11429212 6.19713709 17 9 C17.309375 8.236875 17.61875 7.47375 17.9375 6.6875 C18.67893593 4.81210323 19.36228217 2.91315348 20 1 C13.4 1.33 6.8 1.66 0 2 C-0.66 3.32 -1.32 4.64 -2 6 C-2 3 -2 3 0 0 Z " fill="#626FC4" transform="translate(543,768)"/>
<path d="M0 0 C0.66 0 1.32 0 2 0 C0.49005986 3.80470793 -1.73090303 5.64824522 -4.9375 8.125 C-5.81277344 8.80820312 -6.68804688 9.49140625 -7.58984375 10.1953125 C-12.67099567 14 -12.67099567 14 -16 14 C-14.60135422 10.50338555 -13.3985719 9.49936996 -10 8 C-8.9790625 7.195625 -8.9790625 7.195625 -7.9375 6.375 C-6 5 -6 5 -3 5 C-2.690625 4.360625 -2.38125 3.72125 -2.0625 3.0625 C-1 1 -1 1 0 0 Z " fill="#343571" transform="translate(729,662)"/>
<path d="M0 0 C0.33 0 0.66 0 1 0 C1.05849554 3.20825562 1.09376162 6.41637233 1.125 9.625 C1.14175781 10.52863281 1.15851562 11.43226563 1.17578125 12.36328125 C1.21201643 17.32750152 0.96444146 21.34411907 -1 26 C-1.66 26 -2.32 26 -3 26 C-3.33 26.66 -3.66 27.32 -4 28 C-3.51657787 23.64920086 -2.90811104 19.40803119 -2 15.125 C-0.95617663 10.10841603 -0.41261481 5.10339369 0 0 Z " fill="#333885" transform="translate(575,424)"/>
<path d="M0 0 C3.0625 0.1875 3.0625 0.1875 5.0625 2.1875 C4.34964844 2.41824219 3.63679688 2.64898437 2.90234375 2.88671875 C-3.17209085 4.95513322 -7.92440994 7.17702795 -12.9375 11.1875 C-12.9375 9 -12.9375 9 -11.9375 6.1875 C-9.42544184 4.23307544 -6.70868805 2.74032089 -3.9375 1.1875 C-2.9375 0.1875 -2.9375 0.1875 0 0 Z " fill="#CACBD1" transform="translate(408.9375,319.8125)"/>
<path d="M0 0 C3.63 0 7.26 0 11 0 C11 0.99 11 1.98 11 3 C12.32 3.66 13.64 4.32 15 5 C11.37 5 7.74 5 4 5 C3.67 4.01 3.34 3.02 3 2 C2.01 1.67 1.02 1.34 0 1 C0 0.67 0 0.34 0 0 Z " fill="#C6C7CD" transform="translate(356,559)"/>
<path d="M0 0 C-0.33 1.65 -0.66 3.3 -1 5 C-6.94 4.01 -6.94 4.01 -13 3 C-13 2.34 -13 1.68 -13 1 C-4.57142857 -1.42857143 -4.57142857 -1.42857143 0 0 Z " fill="#D1D0D2" transform="translate(722,797)"/>
<path d="M0 0 C-1.9120553 6.61865296 -4.67931894 8.82973647 -10 13 C-9.32408258 8.77551615 -7.2505248 5.57436292 -5 2 C-2 0 -2 0 0 0 Z " fill="#B7BAC1" transform="translate(677,562)"/>
<path d="M0 0 C0.66 1.65 1.32 3.3 2 5 C1.29875 4.79503906 0.5975 4.59007812 -0.125 4.37890625 C-5.76853609 2.77632603 -11.15876543 1.55105987 -17 1 C-17 0.67 -17 0.34 -17 0 C-11.1314592 -1.14819277 -5.9114744 -0.77313045 0 0 Z " fill="#CACDD2" transform="translate(433,320)"/>
<path d="M0 0 C8.25 0 16.5 0 25 0 C25 0.33 25 0.66 25 1 C23.75863281 1.04898438 22.51726562 1.09796875 21.23828125 1.1484375 C19.59633306 1.22349799 17.95440703 1.29904439 16.3125 1.375 C15.49587891 1.4059375 14.67925781 1.436875 13.83789062 1.46875 C9.49873367 1.67955924 5.95716543 2.01738759 2 4 C1.34 2.68 0.68 1.36 0 0 Z " fill="#5B69C3" transform="translate(488,768)"/>
<path d="M0 0 C0.66 0.33 1.32 0.66 2 1 C0.22745417 4.98822811 -1.12452494 7.82004528 -5 10 C-5.99 10 -6.98 10 -8 10 C-6.5682479 4.98886765 -4.01554307 3.05530451 0 0 Z " fill="#C0C3D1" transform="translate(646,312)"/>
<path d="M0 0 C3.375 -0.125 3.375 -0.125 7 0 C7.66 0.66 8.32 1.32 9 2 C12.58343976 2.16677282 12.58343976 2.16677282 16 2 C16.33 2.66 16.66 3.32 17 4 C10.37579029 5.72805471 6.07841789 3.84964058 0 1 C0 0.67 0 0.34 0 0 Z " fill="#CECED1" transform="translate(674,823)"/>
<path d="M0 0 C0.66 0.66 1.32 1.32 2 2 C0.08588443 2.98414433 -1.8313967 3.96213349 -3.75 4.9375 C-5.35101562 5.75541016 -5.35101562 5.75541016 -6.984375 6.58984375 C-9.38445885 7.71216275 -11.41856752 8.50501659 -14 9 C-13 6 -13 6 -10.05859375 4.39453125 C-8.86363281 3.87246094 -7.66867187 3.35039063 -6.4375 2.8125 C-5.23996094 2.28269531 -4.04242187 1.75289062 -2.80859375 1.20703125 C-1.41833984 0.60955078 -1.41833984 0.60955078 0 0 Z " fill="#B8BAC3" transform="translate(644,596)"/>
<path d="M0 0 C0.66 0.33 1.32 0.66 2 1 C1.09098826 2.5877405 0.17242076 4.17001197 -0.75 5.75 C-1.26046875 6.63171875 -1.7709375 7.5134375 -2.296875 8.421875 C-3.97712548 10.96537343 -5.77419032 12.92902925 -8 15 C-7.4520917 10.7170548 -5.97567196 8.14864359 -3.4375 4.6875 C-2.79683594 3.80449219 -2.15617188 2.92148437 -1.49609375 2.01171875 C-0.75552734 1.01591797 -0.75552734 1.01591797 0 0 Z " fill="#B8BBC5" transform="translate(566,458)"/>
<path d="M0 0 C2.35694954 0.09031574 4.71153582 0.24688128 7.0625 0.4375 C8.35285156 0.53933594 9.64320313 0.64117188 10.97265625 0.74609375 C12.47119141 0.87177734 12.47119141 0.87177734 14 1 C12 3 12 3 8.0859375 3.1953125 C6.51550649 3.18200376 4.94513779 3.15813602 3.375 3.125 C2.57320312 3.11597656 1.77140625 3.10695313 0.9453125 3.09765625 C-1.03658523 3.07406223 -3.01832981 3.03819065 -5 3 C-4.360625 2.690625 -3.72125 2.38125 -3.0625 2.0625 C-1.06389179 1.1654837 -1.06389179 1.1654837 0 0 Z " fill="#212165" transform="translate(670,684)"/>
<path d="M0 0 C1.32 0 2.64 0 4 0 C5 1 6 2 7 3 C9.29115564 4.1404407 11.61678025 5.05570538 14 6 C14 6.66 14 7.32 14 8 C9.71 7.01 5.42 6.02 1 5 C1.33 3.68 1.66 2.36 2 1 C1.34 0.67 0.68 0.34 0 0 Z " fill="#C9CBCE" transform="translate(563,593)"/>
<path d="M0 0 C2 2 2 2 2 5 C2.66 5 3.32 5 4 5 C4.23509196 9.81938524 3.45184478 13.46298506 2 18 C1.67 18 1.34 18 1 18 C0.67 12.06 0.34 6.12 0 0 Z " fill="#BBBEC8" transform="translate(522,421)"/>
<path d="M0 0 C0.33 0 0.66 0 1 0 C0.67 2.64 0.34 5.28 0 8 C-0.33 7.01 -0.66 6.02 -1 5 C-7.27 5 -13.54 5 -20 5 C-20 4.67 -20 4.34 -20 4 C-13.73 4 -7.46 4 -1 4 C-0.67 2.68 -0.34 1.36 0 0 Z " fill="#D3D2CF" transform="translate(655,841)"/>
<path d="M0 0 C0.99 0.66 1.98 1.32 3 2 C2.34 2 1.68 2 1 2 C1 2.66 1 3.32 1 4 C-0.0625 5.5625 -0.0625 5.5625 -2 7 C-5.6875 7.6875 -5.6875 7.6875 -9 8 C-9 7.34 -9 6.68 -9 6 C-6.09451118 3.95830515 -4.59857954 3 -1 3 C-0.67 2.01 -0.34 1.02 0 0 Z " fill="#D2D3D6" transform="translate(632,598)"/>
<path d="M0 0 C0.66 0.99 1.32 1.98 2 3 C0.76125579 4.178611 -0.4914801 5.34252915 -1.75 6.5 C-2.79414063 7.47453125 -2.79414063 7.47453125 -3.859375 8.46875 C-6 10 -6 10 -10 10 C-8.6875 8 -8.6875 8 -7 6 C-6.01 6 -5.02 6 -4 6 C-3.67 5.01 -3.34 4.02 -3 3 C-1.4375 1.3125 -1.4375 1.3125 0 0 Z " fill="#D7D7DA" transform="translate(382,549)"/>
<path d="M0 0 C0.99 0 1.98 0 3 0 C1.7508258 3.45925163 0.32472205 6.14693203 -2 9 C-2.99 8.67 -3.98 8.34 -5 8 C-4.34 6.68 -3.68 5.36 -3 4 C-2.34 4 -1.68 4 -1 4 C-0.67 2.68 -0.34 1.36 0 0 Z " fill="#2A296E" transform="translate(743,643)"/>
<path d="M0 0 C0.33 0.99 0.66 1.98 1 3 C-0.29327628 5.02613283 -1.6296945 7.02514795 -3 9 C-3.76939681 11.22602615 -3.76939681 11.22602615 -4 13 C-4.66 13 -5.32 13 -6 13 C-6.33 13.99 -6.66 14.98 -7 16 C-7.33 15.34 -7.66 14.68 -8 14 C-6.85546875 11.25 -6.85546875 11.25 -5.1875 8 C-4.37345703 6.39125 -4.37345703 6.39125 -3.54296875 4.75 C-2 2 -2 2 0 0 Z " fill="#2D3071" transform="translate(681,556)"/>
<path d="M0 0 C1.31677734 -0.02126953 1.31677734 -0.02126953 2.66015625 -0.04296875 C4.9375 0.1875 4.9375 0.1875 6.9375 2.1875 C-1.4775 2.6825 -1.4775 2.6825 -10.0625 3.1875 C-6.96836355 0.09336355 -4.18912602 0.03084776 0 0 Z " fill="#333A71" transform="translate(419.0625,320.8125)"/>
<path d="M0 0 C0.33 0 0.66 0 1 0 C2.38529821 5.45461169 3.2396943 10.36718401 3 16 C2.34 16 1.68 16 1 16 C0.14701624 12.32612505 -0.10789471 8.9552607 -0.0625 5.1875 C-0.05347656 4.21167969 -0.04445313 3.23585938 -0.03515625 2.23046875 C-0.02355469 1.49441406 -0.01195312 0.75835938 0 0 Z " fill="#26236A" transform="translate(267,606)"/>
<path d="M0 0 C0.66 0.66 1.32 1.32 2 2 C-0.53363068 6.22271781 -2.56620325 8.78310162 -7 11 C-5.22054913 6.95579349 -2.60470327 3.53921513 0 0 Z " fill="#B8B9C5" transform="translate(385,549)"/>
<path d="M0 0 C0.33 0 0.66 0 1 0 C1.05422947 1.4370809 1.09289723 2.87475462 1.125 4.3125 C1.14820313 5.11300781 1.17140625 5.91351563 1.1953125 6.73828125 C1 9 1 9 -1 12 C-1.66 12 -2.32 12 -3 12 C-2.49202991 7.6822542 -1.80317221 3.96697886 0 0 Z " fill="#BFC2CF" transform="translate(455,423)"/>
<path d="M0 0 C5.94 0.99 5.94 0.99 12 2 C8.13209997 3.93395001 6.8499541 4.23289353 2.75 4.125 C1.85796875 4.10695312 0.9659375 4.08890625 0.046875 4.0703125 C-0.96632813 4.03550781 -0.96632813 4.03550781 -2 4 C-1.34 2.68 -0.68 1.36 0 0 Z " fill="#4E58BD" transform="translate(511,198)"/>
<path d="M0 0 C1.27230469 0.00902344 2.54460937 0.01804687 3.85546875 0.02734375 C5.31919922 0.04474609 5.31919922 0.04474609 6.8125 0.0625 C6.8125 0.3925 6.8125 0.7225 6.8125 1.0625 C5.98105469 1.11148438 5.14960938 1.16046875 4.29296875 1.2109375 C3.20628906 1.28570313 2.11960937 1.36046875 1 1.4375 C-0.07894531 1.50710938 -1.15789062 1.57671875 -2.26953125 1.6484375 C-5.37376186 1.87445733 -5.37376186 1.87445733 -8.1875 4.0625 C-9.1775 4.0625 -10.1675 4.0625 -11.1875 4.0625 C-10.8575 3.0725 -10.5275 2.0825 -10.1875 1.0625 C-6.62704823 -0.12431726 -3.74941663 -0.03439832 0 0 Z " fill="#D7D6D2" transform="translate(502.1875,844.9375)"/>
<path d="M0 0 C2.35861489 1.17930745 4.71349258 2.36402683 7.0625 3.5625 C9.95631106 5.05930113 9.95631106 5.05930113 13 6 C11.02 6.99 11.02 6.99 9 8 C5.27885429 5.68462045 2.38770339 3.71420527 0 0 Z " fill="#C3C4C7" transform="translate(428,819)"/>
<path d="M0 0 C0.66 0 1.32 0 2 0 C3.32 2.31 4.64 4.62 6 7 C4 7 4 7 2.375 5.5 C1.92125 5.005 1.4675 4.51 1 4 C1.33 5.32 1.66 6.64 2 8 C1.01 8.495 1.01 8.495 0 9 C0 6.03 0 3.06 0 0 Z " fill="#A1A5BC" transform="translate(320,785)"/>
<path d="M0 0 C0.66 0 1.32 0 2 0 C0.44499019 3.81684226 -2.03595495 6.19195732 -5 9 C-5.66 8.67 -6.32 8.34 -7 8 C-5.88200014 6.66079162 -4.75538103 5.32877444 -3.625 4 C-2.68527344 2.88625 -2.68527344 2.88625 -1.7265625 1.75 C-1.15679687 1.1725 -0.58703125 0.595 0 0 Z " fill="#525FB8" transform="translate(416,776)"/>
<path d="M0 0 C0.66 0.33 1.32 0.66 2 1 C0.02 5.455 0.02 5.455 -2 10 C-2.66 8.68 -3.32 7.36 -4 6 C-2.68 4.02 -1.36 2.04 0 0 Z " fill="#CACBD1" transform="translate(559,465)"/>
<path d="M0 0 C4.455 0.99 4.455 0.99 9 2 C8.67 2.66 8.34 3.32 8 4 C6.35 4 4.7 4 3 4 C3 3.34 3 2.68 3 2 C2.01 1.67 1.02 1.34 0 1 C0 0.67 0 0.34 0 0 Z " fill="#D0D3D4" transform="translate(578,601)"/>
<path d="M0 0 C0.66 0.33 1.32 0.66 2 1 C-0.64 2.98 -3.28 4.96 -6 7 C-6.66 6.67 -7.32 6.34 -8 6 C-7.01 5.67 -6.02 5.34 -5 5 C-5 4.34 -5 3.68 -5 3 C-2.625 1.3125 -2.625 1.3125 0 0 Z " fill="#C7CACD" transform="translate(648,591)"/>
<path d="M0 0 C1.98 0.99 1.98 0.99 4 2 C4 2.66 4 3.32 4 4 C5.32 4.66 6.64 5.32 8 6 C4.62537285 5.45276317 2.91765 4.9451 0 3 C0 2.01 0 1.02 0 0 Z " fill="#2D2B74" transform="translate(666,835)"/>
<path d="M0 0 C0.66 0.33 1.32 0.66 2 1 C1.25 2.9375 1.25 2.9375 0 5 C-2.125 5.75 -2.125 5.75 -4 6 C-2.84826645 3.53199953 -1.95216435 1.95216435 0 0 Z " fill="#2F2C72" transform="translate(628,835)"/>
<path d="M0 0 C0 1.65 0 3.3 0 5 C-1.32 5.33 -2.64 5.66 -4 6 C-3.625 3.5625 -3.625 3.5625 -3 1 C-1 0 -1 0 0 0 Z " fill="#3A3A80" transform="translate(752,630)"/>
<path d="M0 0 C0.99 0 1.98 0 3 0 C2.67 1.65 2.34 3.3 2 5 C0.68 4.67 -0.64 4.34 -2 4 C-2 3.34 -2 2.68 -2 2 C-1.34 2 -0.68 2 0 2 C0 1.34 0 0.68 0 0 Z " fill="#DFDFDB" transform="translate(719,797)"/>
</svg>
